<svg width="129" height="28" viewBox="0 0 129 28" fill="none" xmlns="http://www.w3.org/2000/svg">
<path fill-rule="evenodd" clip-rule="evenodd" d="M13.8727 28C21.5345 28 27.7455 21.732 27.7455 14C27.7455 6.26801 21.5345 0 13.8727 0C6.21103 0 0 6.26801 0 14C0 21.732 6.21103 28 13.8727 28ZM13.8727 25.76C20.3086 25.76 25.5258 20.4949 25.5258 14C25.5258 7.50514 20.3086 2.24 13.8727 2.24C7.43689 2.24 2.21964 7.50514 2.21964 14C2.21964 20.4949 7.43689 25.76 13.8727 25.76Z" fill="white"/>
<path d="M9.24846 7H6.93634V21H9.24846V7Z" fill="#00FFFF"/>
<path d="M20.809 7H18.4969V21H20.809V7Z" fill="#00FFFF"/>
<path d="M14.9142 8.16669H12.6021V17.5H14.9142V8.16669Z" fill="#00FFFF"/>
<path d="M38.1378 6.90909H41.5511L45.1562 15.7045H45.3097L48.9148 6.90909H52.3281V20H49.6435V11.4794H49.5348L46.147 19.9361H44.3189L40.9311 11.4474H40.8224V20H38.1378V6.90909ZM57.3571 20.1854C56.7306 20.1854 56.1724 20.0767 55.6824 19.8594C55.1923 19.6378 54.8045 19.3118 54.519 18.8814C54.2377 18.4467 54.0971 17.9055 54.0971 17.2578C54.0971 16.7124 54.1973 16.2543 54.3975 15.8835C54.5978 15.5128 54.8706 15.2145 55.2157 14.9886C55.5609 14.7628 55.9529 14.5923 56.3919 14.4773C56.835 14.3622 57.2995 14.2812 57.7853 14.2344C58.3564 14.1747 58.8166 14.1193 59.166 14.0682C59.5154 14.0128 59.769 13.9318 59.9267 13.8253C60.0843 13.7187 60.1632 13.5611 60.1632 13.3523V13.3139C60.1632 12.9091 60.0353 12.5959 59.7797 12.3743C59.5282 12.1527 59.1703 12.0419 58.7058 12.0419C58.2157 12.0419 57.8258 12.1506 57.536 12.3679C57.2463 12.581 57.0545 12.8494 56.9608 13.1733L54.4423 12.9688C54.5701 12.3722 54.8216 11.8565 55.1966 11.4219C55.5716 10.983 56.0552 10.6463 56.6475 10.4119C57.2441 10.1733 57.9345 10.054 58.7186 10.054C59.264 10.054 59.786 10.1179 60.2846 10.2457C60.7875 10.3736 61.2328 10.5717 61.6206 10.8402C62.0126 11.1087 62.3216 11.4538 62.5474 11.8757C62.7733 12.2933 62.8862 12.794 62.8862 13.3778V20H60.3038V18.6385H60.2271C60.0694 18.9453 59.8585 19.2159 59.5943 19.4503C59.3301 19.6804 59.0126 19.8615 58.6419 19.9936C58.2711 20.1214 57.8429 20.1854 57.3571 20.1854ZM58.1369 18.3061C58.5375 18.3061 58.8912 18.2273 59.198 18.0696C59.5048 17.9077 59.7456 17.6903 59.9203 17.4176C60.095 17.1449 60.1824 16.8359 60.1824 16.4908V15.4489C60.0971 15.5043 59.9799 15.5554 59.8308 15.6023C59.6859 15.6449 59.5218 15.6854 59.3386 15.7237C59.1554 15.7578 58.9721 15.7898 58.7889 15.8196C58.6056 15.8452 58.4395 15.8686 58.2903 15.8899C57.9707 15.9368 57.6916 16.0114 57.4529 16.1136C57.2143 16.2159 57.0289 16.3544 56.8968 16.5291C56.7647 16.6996 56.6987 16.9126 56.6987 17.1683C56.6987 17.5391 56.8329 17.8224 57.1014 18.0185C57.3741 18.2102 57.7193 18.3061 58.1369 18.3061ZM64.9988 20V10.1818H67.6387V11.8949H67.7409C67.9199 11.2855 68.2203 10.8253 68.6422 10.5142C69.0641 10.1989 69.5499 10.0412 70.0996 10.0412C70.236 10.0412 70.383 10.0497 70.5407 10.0668C70.6983 10.0838 70.8368 10.1072 70.9561 10.1371V12.5533C70.8283 12.5149 70.6515 12.4808 70.4256 12.451C70.1998 12.4212 69.9931 12.4062 69.8056 12.4062C69.405 12.4062 69.0471 12.4936 68.7317 12.6683C68.4206 12.8388 68.1735 13.0774 67.9902 13.3842C67.8113 13.6911 67.7218 14.0447 67.7218 14.4453V20H64.9988ZM74.8313 17.1747L74.8377 13.9084H75.234L78.3789 10.1818H81.5046L77.2795 15.1165H76.6339L74.8313 17.1747ZM72.364 20V6.90909H75.087V20H72.364ZM78.5004 20L75.6112 15.7237L77.4265 13.7997L81.69 20H78.5004ZM87.0577 20V6.90909H89.8255V12.3104H95.4441V6.90909H98.2054V20H95.4441V14.5923H89.8255V20H87.0577ZM104.872 20.1918C103.879 20.1918 103.021 19.9808 102.296 19.5589C101.576 19.1328 101.02 18.5405 100.628 17.782C100.236 17.0192 100.04 16.1349 100.04 15.1293C100.04 14.1151 100.236 13.2287 100.628 12.4702C101.02 11.7074 101.576 11.1151 102.296 10.6932C103.021 10.267 103.879 10.054 104.872 10.054C105.865 10.054 106.722 10.267 107.442 10.6932C108.166 11.1151 108.725 11.7074 109.117 12.4702C109.509 13.2287 109.705 14.1151 109.705 15.1293C109.705 16.1349 109.509 17.0192 109.117 17.782C108.725 18.5405 108.166 19.1328 107.442 19.5589C106.722 19.9808 105.865 20.1918 104.872 20.1918ZM104.885 18.0824C105.337 18.0824 105.714 17.9545 106.017 17.6989C106.319 17.4389 106.547 17.0852 106.7 16.6378C106.858 16.1903 106.937 15.6811 106.937 15.1101C106.937 14.5391 106.858 14.0298 106.7 13.5824C106.547 13.1349 106.319 12.7812 106.017 12.5213C105.714 12.2614 105.337 12.1314 104.885 12.1314C104.429 12.1314 104.046 12.2614 103.735 12.5213C103.428 12.7812 103.195 13.1349 103.038 13.5824C102.884 14.0298 102.808 14.5391 102.808 15.1101C102.808 15.6811 102.884 16.1903 103.038 16.6378C103.195 17.0852 103.428 17.4389 103.735 17.6989C104.046 17.9545 104.429 18.0824 104.885 18.0824ZM111.475 20V10.1818H114.115V11.8949H114.218C114.396 11.2855 114.697 10.8253 115.119 10.5142C115.541 10.1989 116.026 10.0412 116.576 10.0412C116.713 10.0412 116.86 10.0497 117.017 10.0668C117.175 10.0838 117.313 10.1072 117.433 10.1371V12.5533C117.305 12.5149 117.128 12.4808 116.902 12.451C116.676 12.4212 116.47 12.4062 116.282 12.4062C115.882 12.4062 115.524 12.4936 115.208 12.6683C114.897 12.8388 114.65 13.0774 114.467 13.3842C114.288 13.6911 114.198 14.0447 114.198 14.4453V20H111.475ZM121.564 14.3239V20H118.841V10.1818H121.436V11.9141H121.551C121.768 11.343 122.132 10.8913 122.644 10.5589C123.155 10.2223 123.775 10.054 124.504 10.054C125.186 10.054 125.78 10.2031 126.287 10.5014C126.794 10.7997 127.189 11.2259 127.47 11.7798C127.751 12.3295 127.892 12.9858 127.892 13.7486V20H125.169V14.2344C125.173 13.6335 125.02 13.1648 124.708 12.8281C124.397 12.4872 123.969 12.3168 123.424 12.3168C123.057 12.3168 122.733 12.3956 122.452 12.5533C122.175 12.7109 121.958 12.9411 121.8 13.2436C121.647 13.5419 121.568 13.902 121.564 14.3239Z" fill="white"/>
</svg>
