<svg width="48" height="48" viewBox="0 0 48 48" fill="none" xmlns="http://www.w3.org/2000/svg">
<rect width="48" height="48" rx="5" fill="#D9D9D9"/>
<path d="M24 8C32.84 8 40 15.3411 40 24.4047C39.9991 27.8419 38.947 31.1923 36.9917 33.9843C35.0364 36.7763 32.2763 38.8693 29.1 39.9687C28.3 40.1327 28 39.6201 28 39.1894C28 38.6358 28.02 36.8723 28.02 34.6781C28.02 33.1402 27.52 32.1559 26.94 31.6433C30.5 31.2332 34.24 29.8388 34.24 23.5435C34.24 21.7389 33.62 20.283 32.6 19.1347C32.76 18.7246 33.32 17.0431 32.44 14.7874C32.44 14.7874 31.1 14.3363 28.04 16.4689C26.76 16.0998 25.4 15.9153 24.04 15.9153C22.68 15.9153 21.32 16.0998 20.04 16.4689C16.98 14.3568 15.64 14.7874 15.64 14.7874C14.76 17.0431 15.32 18.7246 15.48 19.1347C14.46 20.283 13.84 21.7594 13.84 23.5435C13.84 29.8183 17.56 31.2332 21.12 31.6433C20.66 32.0534 20.24 32.7711 20.1 33.8374C19.18 34.268 16.88 34.9652 15.44 32.484C15.14 31.9919 14.24 30.782 12.98 30.8025C11.64 30.823 12.44 31.5818 13 31.8893C13.68 32.279 14.46 33.7349 14.64 34.2065C14.96 35.1293 16 36.8928 20.02 36.1341C20.02 37.508 20.04 38.7998 20.04 39.1894C20.04 39.6201 19.74 40.1122 18.94 39.9687C15.7533 38.8811 12.9815 36.7923 11.0178 33.9987C9.05409 31.205 7.99824 27.8483 8 24.4047C8 15.3411 15.16 8 24 8Z" fill="black"/>
</svg>
