<svg width="48" height="48" viewBox="0 0 48 48" fill="none" xmlns="http://www.w3.org/2000/svg">
<rect width="48" height="48" rx="5" fill="#D9D9D9"/>
<path d="M15.4488 18.2821H9.02471C8.7396 18.2821 8.50858 18.5138 8.50858 18.7994V39.4826C8.50858 39.7684 8.7396 39.9999 9.02471 39.9999H15.4488C15.7339 39.9999 15.9649 39.7684 15.9649 39.4826V18.7994C15.9649 18.5138 15.7339 18.2821 15.4488 18.2821Z" fill="black"/>
<path d="M12.2391 8C9.90163 8 8 9.90375 8 12.2438C8 14.5848 9.90163 16.4893 12.2391 16.4893C14.5747 16.4893 16.4747 14.5847 16.4747 12.2438C16.4748 9.90375 14.5747 8 12.2391 8Z" fill="black"/>
<path d="M31.7888 17.7681C29.2087 17.7681 27.3014 18.8797 26.1445 20.1427V18.7994C26.1445 18.5138 25.9135 18.2821 25.6284 18.2821H19.4762C19.1911 18.2821 18.9601 18.5138 18.9601 18.7994V39.4826C18.9601 39.7684 19.1911 39.9999 19.4762 39.9999H25.8862C26.1713 39.9999 26.4024 39.7684 26.4024 39.4826V29.2492C26.4024 25.8008 27.337 24.4574 29.7355 24.4574C32.3478 24.4574 32.5553 26.6111 32.5553 29.4267V39.4827C32.5553 39.7685 32.7864 40 33.0715 40H39.4839C39.769 40 40 39.7685 40 39.4827V28.1376C40 23.01 39.0244 17.7681 31.7888 17.7681Z" fill="black"/>
</svg>
